<svg width="25" height="24" viewBox="0 0 25 24" fill="none" xmlns="http://www.w3.org/2000/svg">
<path d="M8.75 19.5V22.5" stroke="#333541" stroke-linecap="round" stroke-linejoin="round"/>
<path d="M4.25 1.5H13.25C13.6478 1.5 14.0294 1.65804 14.3107 1.93934C14.592 2.22064 14.75 2.60218 14.75 3V22.3125C14.75 22.3622 14.7302 22.4099 14.6951 22.4451C14.6599 22.4802 14.6122 22.5 14.5625 22.5H2.75V3C2.75 2.60218 2.90804 2.22064 3.18934 1.93934C3.47064 1.65804 3.85218 1.5 4.25 1.5V1.5Z" stroke="#333541" stroke-linecap="round" stroke-linejoin="round"/>
<path d="M15.5 9H20.75C21.1478 9 21.5294 9.15804 21.8107 9.43934C22.092 9.72064 22.25 10.1022 22.25 10.5V22.5H14.75V9.75C14.75 9.55109 14.829 9.36032 14.9697 9.21967C15.1103 9.07902 15.3011 9 15.5 9Z" stroke="#333541" stroke-linecap="round" stroke-linejoin="round"/>
<path d="M5.09745 20.2442C4.94212 20.2645 4.78432 20.2356 4.64621 20.1617C4.50811 20.0878 4.39661 19.9725 4.32739 19.8319C4.25816 19.6914 4.23468 19.5327 4.26023 19.3782C4.28578 19.2236 4.35908 19.0809 4.46985 18.9702C4.58062 18.8594 4.7233 18.7861 4.87786 18.7605C5.03241 18.735 5.19109 18.7585 5.33162 18.8277C5.47214 18.8969 5.58747 19.0084 5.6614 19.1465C5.73534 19.2846 5.76417 19.4424 5.74385 19.5978C5.72242 19.7617 5.64742 19.9139 5.53052 20.0308C5.41362 20.1477 5.26137 20.2227 5.09745 20.2442Z" fill="#E31837"/>
<path d="M5.09745 16.4942C4.94212 16.5145 4.78432 16.4856 4.64621 16.4117C4.50811 16.3378 4.39661 16.2225 4.32739 16.0819C4.25816 15.9414 4.23468 15.7827 4.26023 15.6282C4.28578 15.4736 4.35908 15.3309 4.46985 15.2202C4.58062 15.1094 4.7233 15.0361 4.87786 15.0105C5.03241 14.985 5.19109 15.0085 5.33162 15.0777C5.47214 15.1469 5.58747 15.2584 5.6614 15.3965C5.73534 15.5346 5.76417 15.6924 5.74385 15.8478C5.72242 16.0117 5.64742 16.1639 5.53052 16.2808C5.41362 16.3977 5.26137 16.4727 5.09745 16.4942Z" fill="#E31837"/>
<path d="M5.09745 12.7441C4.94212 12.7645 4.78432 12.7356 4.64621 12.6617C4.50811 12.5878 4.39661 12.4724 4.32739 12.3319C4.25816 12.1914 4.23468 12.0327 4.26023 11.8782C4.28578 11.7236 4.35908 11.5809 4.46985 11.4702C4.58062 11.3594 4.7233 11.2861 4.87786 11.2605C5.03241 11.235 5.19109 11.2585 5.33162 11.3277C5.47214 11.3969 5.58747 11.5084 5.6614 11.6465C5.73534 11.7846 5.76417 11.9424 5.74385 12.0977C5.72242 12.2617 5.64742 12.4139 5.53052 12.5308C5.41362 12.6477 5.26137 12.7227 5.09745 12.7441Z" fill="#E31837"/>
<path d="M5.09745 8.99415C4.94212 9.01446 4.78432 8.98563 4.64621 8.9117C4.50811 8.83776 4.39661 8.72244 4.32739 8.58191C4.25816 8.44139 4.23468 8.28271 4.26023 8.12816C4.28578 7.9736 4.35908 7.83093 4.46985 7.72016C4.58062 7.60939 4.7233 7.53608 4.87786 7.51053C5.03241 7.48498 5.19109 7.50847 5.33162 7.57769C5.47214 7.64692 5.58747 7.75841 5.6614 7.89652C5.73534 8.03462 5.76417 8.19242 5.74385 8.34775C5.72242 8.51167 5.64742 8.66392 5.53052 8.78081C5.41362 8.89771 5.26137 8.97271 5.09745 8.99415Z" fill="#E31837"/>
<path d="M5.09745 5.24416C4.94212 5.26447 4.78432 5.23564 4.64621 5.16171C4.50811 5.08777 4.39661 4.97245 4.32739 4.83192C4.25816 4.69139 4.23468 4.53272 4.26023 4.37816C4.28578 4.22361 4.35908 4.08093 4.46985 3.97016C4.58062 3.85939 4.7233 3.78608 4.87786 3.76053C5.03241 3.73498 5.19109 3.75847 5.33162 3.82769C5.47214 3.89692 5.58747 4.00841 5.6614 4.14652C5.73534 4.28463 5.76417 4.44242 5.74385 4.59775C5.72242 4.76168 5.64742 4.91392 5.53052 5.03082C5.41362 5.14772 5.26137 5.22272 5.09745 5.24416Z" fill="#E31837"/>
<path d="M8.84744 16.4942C8.69211 16.5145 8.53432 16.4856 8.39621 16.4117C8.2581 16.3378 8.14661 16.2225 8.07739 16.0819C8.00816 15.9414 7.98468 15.7827 8.01023 15.6282C8.03578 15.4736 8.10908 15.3309 8.21985 15.2202C8.33062 15.1094 8.4733 15.0361 8.62785 15.0105C8.78241 14.985 8.94108 15.0085 9.08161 15.0777C9.22214 15.1469 9.33746 15.2584 9.41139 15.3965C9.48533 15.5346 9.51416 15.6924 9.49384 15.8478C9.4724 16.0117 9.39741 16.1639 9.28051 16.2808C9.16361 16.3977 9.01136 16.4727 8.84744 16.4942Z" fill="#E31837"/>
<path d="M8.84744 12.7441C8.69211 12.7645 8.53432 12.7356 8.39621 12.6617C8.2581 12.5878 8.14661 12.4724 8.07739 12.3319C8.00816 12.1914 7.98468 12.0327 8.01023 11.8782C8.03578 11.7236 8.10908 11.5809 8.21985 11.4702C8.33062 11.3594 8.4733 11.2861 8.62785 11.2605C8.78241 11.235 8.94108 11.2585 9.08161 11.3277C9.22214 11.3969 9.33746 11.5084 9.41139 11.6465C9.48533 11.7846 9.51416 11.9424 9.49384 12.0977C9.4724 12.2617 9.39741 12.4139 9.28051 12.5308C9.16361 12.6477 9.01136 12.7227 8.84744 12.7441Z" fill="#E31837"/>
<path d="M8.84744 8.99415C8.69211 9.01446 8.53432 8.98563 8.39621 8.9117C8.2581 8.83776 8.14661 8.72244 8.07739 8.58191C8.00816 8.44139 7.98468 8.28271 8.01023 8.12816C8.03578 7.9736 8.10908 7.83093 8.21985 7.72016C8.33062 7.60939 8.4733 7.53608 8.62785 7.51053C8.78241 7.48498 8.94108 7.50847 9.08161 7.57769C9.22214 7.64692 9.33746 7.75841 9.41139 7.89652C9.48533 8.03462 9.51416 8.19242 9.49384 8.34775C9.4724 8.51167 9.39741 8.66392 9.28051 8.78081C9.16361 8.89771 9.01136 8.97271 8.84744 8.99415Z" fill="#E31837"/>
<path d="M8.84744 5.24416C8.69211 5.26447 8.53432 5.23564 8.39621 5.16171C8.2581 5.08777 8.14661 4.97245 8.07739 4.83192C8.00816 4.69139 7.98468 4.53272 8.01023 4.37816C8.03578 4.22361 8.10908 4.08093 8.21985 3.97016C8.33062 3.85939 8.4733 3.78608 8.62785 3.76053C8.78241 3.73498 8.94108 3.75847 9.08161 3.82769C9.22214 3.89692 9.33746 4.00841 9.41139 4.14652C9.48533 4.28463 9.51416 4.44242 9.49384 4.59775C9.4724 4.76168 9.39741 4.91392 9.28051 5.03082C9.16361 5.14772 9.01136 5.22272 8.84744 5.24416Z" fill="#E31837"/>
<path d="M12.5974 20.2442C12.4421 20.2645 12.2843 20.2356 12.1462 20.1617C12.0081 20.0878 11.8966 19.9725 11.8274 19.8319C11.7582 19.6914 11.7347 19.5327 11.7602 19.3782C11.7858 19.2236 11.8591 19.0809 11.9699 18.9702C12.0806 18.8594 12.2233 18.7861 12.3779 18.7605C12.5324 18.735 12.6911 18.7585 12.8316 18.8277C12.9721 18.8969 13.0875 19.0084 13.1614 19.1465C13.2353 19.2846 13.2642 19.4424 13.2438 19.5978C13.2224 19.7617 13.1474 19.9139 13.0305 20.0308C12.9136 20.1477 12.7614 20.2227 12.5974 20.2442Z" fill="#E31837"/>
<path d="M12.5974 16.4942C12.4421 16.5145 12.2843 16.4856 12.1462 16.4117C12.0081 16.3378 11.8966 16.2225 11.8274 16.0819C11.7582 15.9414 11.7347 15.7827 11.7602 15.6282C11.7858 15.4736 11.8591 15.3309 11.9699 15.2202C12.0806 15.1094 12.2233 15.0361 12.3779 15.0105C12.5324 14.985 12.6911 15.0085 12.8316 15.0777C12.9721 15.1469 13.0875 15.2584 13.1614 15.3965C13.2353 15.5346 13.2642 15.6924 13.2438 15.8478C13.2224 16.0117 13.1474 16.1639 13.0305 16.2808C12.9136 16.3977 12.7614 16.4727 12.5974 16.4942Z" fill="#E31837"/>
<path d="M12.5974 12.7441C12.4421 12.7645 12.2843 12.7356 12.1462 12.6617C12.0081 12.5878 11.8966 12.4724 11.8274 12.3319C11.7582 12.1914 11.7347 12.0327 11.7602 11.8782C11.7858 11.7236 11.8591 11.5809 11.9699 11.4702C12.0806 11.3594 12.2233 11.2861 12.3779 11.2605C12.5324 11.235 12.6911 11.2585 12.8316 11.3277C12.9721 11.3969 13.0875 11.5084 13.1614 11.6465C13.2353 11.7846 13.2642 11.9424 13.2438 12.0977C13.2224 12.2617 13.1474 12.4139 13.0305 12.5308C12.9136 12.6477 12.7614 12.7227 12.5974 12.7441Z" fill="#E31837"/>
<path d="M13.0312 8.7808C13.3232 8.48882 13.322 8.01425 13.0285 7.72081C12.7351 7.42737 12.2605 7.42618 11.9686 7.71816C11.6766 8.01013 11.6778 8.48471 11.9712 8.77815C12.2646 9.07159 12.7392 9.07278 13.0312 8.7808Z" fill="#E31837"/>
<path d="M12.5974 5.24416C12.4421 5.26447 12.2843 5.23564 12.1462 5.16171C12.0081 5.08777 11.8966 4.97245 11.8274 4.83192C11.7582 4.69139 11.7347 4.53272 11.7602 4.37816C11.7858 4.22361 11.8591 4.08093 11.9699 3.97016C12.0806 3.85939 12.2233 3.78608 12.3779 3.76053C12.5324 3.73498 12.6911 3.75847 12.8316 3.82769C12.9721 3.89692 13.0875 4.00841 13.1614 4.14652C13.2353 4.28463 13.2642 4.44242 13.2438 4.59775C13.2224 4.76168 13.1474 4.91392 13.0305 5.03082C12.9136 5.14772 12.7614 5.22272 12.5974 5.24416Z" fill="#E31837"/>
<path d="M19.25 18.75C19.1017 18.75 18.9567 18.794 18.8333 18.8764C18.71 18.9588 18.6139 19.0759 18.5571 19.213C18.5003 19.35 18.4855 19.5008 18.5144 19.6463C18.5434 19.7918 18.6148 19.9254 18.7197 20.0303C18.8246 20.1352 18.9582 20.2067 19.1037 20.2356C19.2492 20.2645 19.4 20.2497 19.537 20.1929C19.6741 20.1362 19.7912 20.04 19.8736 19.9167C19.956 19.7933 20 19.6483 20 19.5C20 19.3011 19.921 19.1103 19.7803 18.9697C19.6397 18.829 19.4489 18.75 19.25 18.75Z" fill="#333541"/>
<path d="M19.25 15C19.1017 15 18.9567 15.044 18.8333 15.1264C18.71 15.2088 18.6139 15.3259 18.5571 15.463C18.5003 15.6 18.4855 15.7508 18.5144 15.8963C18.5434 16.0418 18.6148 16.1754 18.7197 16.2803C18.8246 16.3852 18.9582 16.4567 19.1037 16.4856C19.2492 16.5145 19.4 16.4997 19.537 16.4429C19.6741 16.3862 19.7912 16.29 19.8736 16.1667C19.956 16.0433 20 15.8983 20 15.75C20 15.5511 19.921 15.3603 19.7803 15.2197C19.6397 15.079 19.4489 15 19.25 15Z" fill="#333541"/>
<path d="M19.25 11.25C19.1017 11.25 18.9567 11.294 18.8333 11.3764C18.71 11.4588 18.6139 11.5759 18.5571 11.713C18.5003 11.85 18.4855 12.0008 18.5144 12.1463C18.5434 12.2918 18.6148 12.4254 18.7197 12.5303C18.8246 12.6352 18.9582 12.7067 19.1037 12.7356C19.2492 12.7645 19.4 12.7497 19.537 12.6929C19.6741 12.6362 19.7912 12.54 19.8736 12.4167C19.956 12.2933 20 12.1483 20 12C20 11.8011 19.921 11.6103 19.7803 11.4697C19.6397 11.329 19.4489 11.25 19.25 11.25Z" fill="#333541"/>
<path d="M16.25 18.75C16.1017 18.75 15.9567 18.794 15.8333 18.8764C15.71 18.9588 15.6139 19.0759 15.5571 19.213C15.5003 19.35 15.4855 19.5008 15.5144 19.6463C15.5434 19.7918 15.6148 19.9254 15.7197 20.0303C15.8246 20.1352 15.9582 20.2067 16.1037 20.2356C16.2492 20.2645 16.4 20.2497 16.537 20.1929C16.6741 20.1362 16.7912 20.04 16.8736 19.9167C16.956 19.7933 17 19.6483 17 19.5C17 19.3011 16.921 19.1103 16.7803 18.9697C16.6397 18.829 16.4489 18.75 16.25 18.75Z" fill="#333541"/>
<path d="M16.25 15C16.1017 15 15.9567 15.044 15.8333 15.1264C15.71 15.2088 15.6139 15.3259 15.5571 15.463C15.5003 15.6 15.4855 15.7508 15.5144 15.8963C15.5434 16.0418 15.6148 16.1754 15.7197 16.2803C15.8246 16.3852 15.9582 16.4567 16.1037 16.4856C16.2492 16.5145 16.4 16.4997 16.537 16.4429C16.6741 16.3862 16.7912 16.29 16.8736 16.1667C16.956 16.0433 17 15.8983 17 15.75C17 15.5511 16.921 15.3603 16.7803 15.2197C16.6397 15.079 16.4489 15 16.25 15Z" fill="#333541"/>
<path d="M16.25 11.25C16.1017 11.25 15.9567 11.294 15.8333 11.3764C15.71 11.4588 15.6139 11.5759 15.5571 11.713C15.5003 11.85 15.4855 12.0008 15.5144 12.1463C15.5434 12.2918 15.6148 12.4254 15.7197 12.5303C15.8246 12.6352 15.9582 12.7067 16.1037 12.7356C16.2492 12.7645 16.4 12.7497 16.537 12.6929C16.6741 12.6362 16.7912 12.54 16.8736 12.4167C16.956 12.2933 17 12.1483 17 12C17 11.8011 16.921 11.6103 16.7803 11.4697C16.6397 11.329 16.4489 11.25 16.25 11.25Z" fill="#333541"/>
</svg>
