<svg width="25" height="24" viewBox="0 0 25 24" fill="none" xmlns="http://www.w3.org/2000/svg">
<path d="M19.0517 3.52881C18.9641 3.52903 18.8779 3.50572 18.8024 3.46131C16.722 2.34756 14.9235 1.87506 12.7672 1.87506C10.6217 1.87506 8.58455 2.40381 6.73158 3.46131C6.46955 3.60943 6.14658 3.50631 5.99471 3.23443C5.92692 3.10321 5.91162 2.9511 5.95194 2.80901C5.99225 2.66692 6.08514 2.5455 6.21174 2.46943C8.21019 1.33598 10.4697 0.743354 12.7672 0.750056C15.0749 0.750056 17.0905 1.27881 19.3011 2.46006C19.4301 2.53097 19.5261 2.64961 19.5686 2.79053C19.6111 2.93144 19.5967 3.0834 19.5285 3.21381C19.4874 3.30639 19.4207 3.38527 19.3362 3.4411C19.2517 3.49693 19.153 3.52737 19.0517 3.52881Z" fill="#E31837"/>
<path fill-rule="evenodd" clip-rule="evenodd" d="M10.318 23.0157C10.2464 23.0164 10.1755 23.0017 10.11 22.9725C10.0446 22.9434 9.98619 22.9006 9.93877 22.8469C8.99611 21.8663 8.48518 21.2344 7.76096 19.8751C7.01096 18.4913 6.6233 16.8038 6.6233 14.9926C6.6233 11.6513 9.37533 8.92881 12.7564 8.92881C16.1375 8.92881 18.8914 11.6513 18.8914 14.9926C18.8936 15.065 18.8811 15.1372 18.8549 15.2048C18.8286 15.2723 18.789 15.334 18.7385 15.386C18.688 15.438 18.6276 15.4793 18.5608 15.5076C18.494 15.5358 18.4223 15.5504 18.3498 15.5504C18.2773 15.5504 18.2055 15.5358 18.1387 15.5076C18.072 15.4793 18.0115 15.438 17.961 15.386C17.9105 15.334 17.871 15.2723 17.8447 15.2048C17.8184 15.1372 17.806 15.065 17.8081 14.9926C17.8081 12.2701 15.5431 10.0538 12.7588 10.0538C9.97439 10.0538 7.70705 12.2701 7.70705 14.9926C7.70705 16.6126 8.05346 18.1088 8.71439 19.3238C9.40814 20.6176 9.88627 21.1688 10.7192 22.0463C10.818 22.1555 10.8727 22.2975 10.8727 22.4447C10.8727 22.592 10.818 22.734 10.7192 22.8432C10.6129 22.9505 10.469 23.0123 10.318 23.0157ZM18.0875 20.9344C16.798 20.9344 15.6603 20.5969 14.7285 19.9332C13.9345 19.3767 13.2859 18.6376 12.8373 17.7781C12.3886 16.9187 12.153 15.964 12.1503 14.9944C12.1473 14.9214 12.1591 14.8485 12.1849 14.7801C12.2108 14.7117 12.2502 14.6492 12.3008 14.5964C12.3514 14.5437 12.4122 14.5017 12.4795 14.473C12.5467 14.4443 12.6191 14.4295 12.6922 14.4295C12.7653 14.4295 12.8377 14.4443 12.9049 14.473C12.9722 14.5017 13.033 14.5437 13.0836 14.5964C13.1342 14.6492 13.1736 14.7117 13.1995 14.7801C13.2254 14.8485 13.2371 14.9214 13.2341 14.9944C13.2359 15.7819 13.428 16.5573 13.7939 17.2547C14.1599 17.952 14.6889 18.5506 15.336 18.9994C16.1052 19.5394 17.0047 19.7963 18.0885 19.7963C18.4659 19.7896 18.8422 19.752 19.2135 19.6838C19.506 19.6276 19.7877 19.8301 19.8416 20.1451C19.869 20.2904 19.8377 20.4408 19.7545 20.5631C19.6713 20.6854 19.543 20.7697 19.3977 20.7976C18.966 20.8828 18.5275 20.928 18.0875 20.9326V20.9344ZM15.9092 23.2501C15.8616 23.2481 15.8144 23.2405 15.7686 23.2276C14.0455 22.7326 12.9186 22.0688 11.7374 20.8651C10.22 19.3013 9.38611 17.2201 9.38611 14.9926C9.38611 13.1701 10.8814 11.6851 12.7231 11.6851C14.5649 11.6851 16.0606 13.1701 16.0606 14.9926C16.0606 16.1963 17.0685 17.1751 18.3144 17.1751C19.5603 17.1751 20.5681 16.1963 20.5681 14.9926C20.5681 10.7513 17.0464 7.30881 12.7124 7.30881C9.63502 7.30881 6.81783 9.08631 5.55033 11.8426C5.12846 12.7538 4.91096 13.8226 4.91096 14.9926C4.91096 15.8701 4.98643 17.2538 5.63658 19.0538C5.74533 19.3463 5.60424 19.6726 5.32252 19.7738C5.25557 19.7993 5.18415 19.811 5.11257 19.8082C5.04098 19.8054 4.9707 19.7882 4.90594 19.7575C4.84119 19.7269 4.78329 19.6834 4.73574 19.6299C4.68819 19.5763 4.65197 19.5136 4.62924 19.4457C4.10643 18.0192 3.8386 16.5118 3.83799 14.9926C3.83799 13.6426 4.08736 12.4144 4.57486 11.3476C6.01627 8.20693 9.21267 6.17256 12.7124 6.17256C17.6427 6.17256 21.6519 10.1213 21.6519 14.9813C21.6519 16.8038 20.1566 18.2888 18.3144 18.2888C16.4722 18.2888 14.9769 16.8038 14.9769 14.9813C14.9774 13.7776 13.9696 12.7969 12.7236 12.7969C11.4777 12.7969 10.4699 13.7757 10.4699 14.9794C10.4699 16.9013 11.1852 18.7032 12.4963 20.0532C13.5275 21.1107 14.5119 21.6938 16.0395 22.1344C16.332 22.2132 16.4947 22.5282 16.4188 22.8207C16.3951 22.9394 16.3318 23.0466 16.2392 23.1246C16.1466 23.2026 16.0303 23.2469 15.9092 23.2501Z" fill="#333541"/>
<path d="M3.54596 9.43506C3.43337 9.43426 3.32375 9.39891 3.23189 9.33381C3.11239 9.24499 3.03202 9.11327 3.00771 8.96637C2.9834 8.81948 3.01706 8.66888 3.10158 8.54631C4.17455 6.97131 5.53908 5.73381 7.16517 4.86756C10.5674 3.04693 14.9235 3.03381 18.3364 4.85631C19.962 5.72256 21.327 6.94881 22.4 8.51256C22.4842 8.63524 22.5176 8.78574 22.4933 8.93253C22.4691 9.07932 22.3889 9.21103 22.2697 9.30006C22.2119 9.34328 22.1458 9.37418 22.0755 9.39085C22.0053 9.40751 21.9323 9.40958 21.8612 9.39692C21.7901 9.38427 21.7224 9.35716 21.6622 9.31728C21.602 9.2774 21.5506 9.22559 21.5113 9.16506C20.5363 7.74756 19.3011 6.63381 17.8381 5.85756C14.7285 4.20381 10.7516 4.20381 7.65268 5.86881C6.17893 6.65631 4.94377 7.78131 3.96877 9.19693C3.92673 9.27142 3.8651 9.33299 3.79057 9.37496C3.71605 9.41694 3.63145 9.43772 3.54596 9.43506Z" fill="#E31837"/>
</svg>
