<svg width="25" height="24" viewBox="0 0 25 24" fill="none" xmlns="http://www.w3.org/2000/svg">
<path d="M21.5 7.5H3C2.86193 7.5 2.75 7.38839 2.75 7.25032V6C2.75 4.82972 3.70109 4.19838 4.21196 4.01324C4.23722 4.00409 4.26255 4 4.28942 4H19.75C20.9203 4 21.5516 4.95109 21.7368 5.46196C21.7459 5.48722 21.75 5.5137 21.75 5.54057V7.25C21.75 7.38807 21.6381 7.5 21.5 7.5Z" fill="#E31837" stroke="#333541"/>
<path d="M19.75 3.75H4.75C3.50736 3.75 2.5 4.75736 2.5 6V19.5C2.5 20.7426 3.50736 21.75 4.75 21.75H19.75C20.9926 21.75 22 20.7426 22 19.5V6C22 4.75736 20.9926 3.75 19.75 3.75Z" stroke="#333541" stroke-linejoin="round"/>
<path d="M14.125 12C14.7463 12 15.25 11.4963 15.25 10.875C15.25 10.2537 14.7463 9.75 14.125 9.75C13.5037 9.75 13 10.2537 13 10.875C13 11.4963 13.5037 12 14.125 12Z" fill="#E31837"/>
<path d="M17.875 12C18.4963 12 19 11.4963 19 10.875C19 10.2537 18.4963 9.75 17.875 9.75C17.2537 9.75 16.75 10.2537 16.75 10.875C16.75 11.4963 17.2537 12 17.875 12Z" fill="#333541"/>
<path d="M14.125 15.75C14.7463 15.75 15.25 15.2463 15.25 14.625C15.25 14.0037 14.7463 13.5 14.125 13.5C13.5037 13.5 13 14.0037 13 14.625C13 15.2463 13.5037 15.75 14.125 15.75Z" fill="#333541"/>
<path d="M17.875 15.75C18.4963 15.75 19 15.2463 19 14.625C19 14.0037 18.4963 13.5 17.875 13.5C17.2537 13.5 16.75 14.0037 16.75 14.625C16.75 15.2463 17.2537 15.75 17.875 15.75Z" fill="#333541"/>
<path d="M6.625 15.75C7.24632 15.75 7.75 15.2463 7.75 14.625C7.75 14.0037 7.24632 13.5 6.625 13.5C6.00368 13.5 5.5 14.0037 5.5 14.625C5.5 15.2463 6.00368 15.75 6.625 15.75Z" fill="#333541"/>
<path d="M10.375 15.75C10.9963 15.75 11.5 15.2463 11.5 14.625C11.5 14.0037 10.9963 13.5 10.375 13.5C9.75368 13.5 9.25 14.0037 9.25 14.625C9.25 15.2463 9.75368 15.75 10.375 15.75Z" fill="#333541"/>
<path d="M6.625 19.5C7.24632 19.5 7.75 18.9963 7.75 18.375C7.75 17.7537 7.24632 17.25 6.625 17.25C6.00368 17.25 5.5 17.7537 5.5 18.375C5.5 18.9963 6.00368 19.5 6.625 19.5Z" fill="#333541"/>
<path d="M10.375 19.5C10.9963 19.5 11.5 18.9963 11.5 18.375C11.5 17.7537 10.9963 17.25 10.375 17.25C9.75368 17.25 9.25 17.7537 9.25 18.375C9.25 18.9963 9.75368 19.5 10.375 19.5Z" fill="#333541"/>
<path d="M14.125 19.5C14.7463 19.5 15.25 18.9963 15.25 18.375C15.25 17.7537 14.7463 17.25 14.125 17.25C13.5037 17.25 13 17.7537 13 18.375C13 18.9963 13.5037 19.5 14.125 19.5Z" fill="#333541"/>
<path d="M6.25 2.25V3.75" stroke="#333541" stroke-linecap="round" stroke-linejoin="round"/>
<path d="M18.25 2.25V3.75" stroke="#333541" stroke-linecap="round" stroke-linejoin="round"/>
<path d="M22 7.5H2.5" stroke="#333541" stroke-linejoin="round"/>
</svg>
