<svg width="24" height="24" viewBox="0 0 24 24" fill="none" xmlns="http://www.w3.org/2000/svg">
<path d="M12.1359 2.25017C6.65246 2.17611 2.1759 6.65267 2.24996 12.1361C2.32308 17.395 6.60512 21.677 11.864 21.7502C17.3484 21.8252 21.824 17.3486 21.749 11.8652C21.6768 6.60533 17.3948 2.3233 12.1359 2.25017ZM18.0618 17.59C18.0432 17.6102 18.0203 17.626 17.9948 17.6364C17.9693 17.6468 17.9419 17.6514 17.9144 17.65C17.8869 17.6485 17.8601 17.6411 17.8359 17.6281C17.8116 17.6152 17.7905 17.597 17.774 17.575C17.3547 17.0265 16.8413 16.5568 16.2576 16.188C15.0642 15.422 13.552 15.0002 12 15.0002C10.4479 15.0002 8.93574 15.422 7.7423 16.188C7.15865 16.5566 6.64519 17.0261 6.2259 17.5745C6.20943 17.5966 6.18831 17.6147 6.16405 17.6277C6.13979 17.6406 6.11297 17.6481 6.08551 17.6495C6.05804 17.6509 6.0306 17.6463 6.00512 17.6359C5.97964 17.6256 5.95676 17.6097 5.93808 17.5895C4.56262 16.1047 3.78347 14.1645 3.74996 12.1408C3.67355 7.57939 7.41652 3.76142 11.9798 3.75017C16.5431 3.73892 20.25 7.44439 20.25 12.0002C20.2515 14.0727 19.47 16.0693 18.0618 17.59Z" fill="#333541"/>
<path d="M12 6.75C11.0756 6.75 10.2399 7.09641 9.64596 7.72594C9.05205 8.35547 8.75534 9.22594 8.82237 10.1602C8.9583 12 10.3838 13.5 12 13.5C13.6163 13.5 15.0389 12 15.1777 10.1606C15.2471 9.23531 14.9527 8.37281 14.3489 7.73156C13.7527 7.09875 12.9183 6.75 12 6.75Z" fill="#E31837"/>
</svg>
